<svg width="40" height="40" xmlns="http://www.w3.org/2000/svg">
    <g>
        <title>Layer 1</title>
        <path fill="none" stroke="#ffffff" id="svg_8"
              d="m194,216.5c0,0 0.70711,-0.29289 0,-1c-0.70711,-0.70711 -1.69344,-1.4588 -3,-2c-0.92387,-0.38269 -2.85274,-1.1731 -4,-2c-1.814,-1.30745 -5,-2 -8,-3c-3,-1 -6.05165,-1.35927 -10,-2c-3.12144,-0.50655 -5.87856,-1.49345 -9,-2c-2.96126,-0.48055 -6,-1 -10,-1c-3,0 -6,0 -9,0c-2,0 -5,0 -7,0c-2,0 -4.02675,-0.22975 -5,0c-2.17625,0.51375 -4.02675,0.77025 -5,1c-2.17625,0.51375 -4.0535,0.5405 -6,1c-2.17625,0.51375 -4.0535,1.5405 -6,2c-2.17625,0.51375 -4.07612,1.61731 -5,2c-1.30656,0.5412 -3.186,1.69255 -5,3c-2.29454,1.65381 -4.34619,2.70546 -6,5c-1.30745,1.814 -3,3 -4,5c-1,2 -2.4588,3.69344 -3,5c-0.76537,1.84776 0,4 0,6c0,2 0,4 0,6c0,3 1.41589,4.76108 3,8c1.38935,2.84073 2.33749,6.31001 4,9c1.48699,2.40601 3.20681,4.81265 5,7c2.28588,2.78833 3.81266,5.20682 6,7c2.78832,2.28589 5,4 7,6c2,2 5,4 8,5c3,1 5.96384,2.11588 9,3c3.95868,1.15277 7.05165,1.35928 11,2c3.12144,0.50653 6.90779,1.49622 11,2c3.97003,0.48874 9.03746,0.38907 14,1c4.09221,0.50378 9.01947,0.60583 13,1c5.0742,0.50244 9,1 12,2c3,1 6,1 8,2c2,1 4,2 6,3c2,1 3.70546,2.34619 6,4c1.814,1.30746 3,2 4,3c1,1 3.513,2.59399 5,5c1.66251,2.69 2,5 3,7c1,2 1.31075,3.08026 2,6c0.51375,2.17624 2.48625,4.82376 3,7c0.68925,2.91974 0.49345,4.87857 1,8c0.32036,1.97418 0,5 0,7c0,3 -0.48625,4.82376 -1,7c-0.4595,1.9465 -0.23463,5.15225 -1,7c-0.5412,1.30655 -1.14429,2.93414 -2,5c-1.21014,2.92157 -2,5 -3,7c-1,2 -3.34619,3.70547 -5,6c-1.30745,1.814 -2.41885,3.41885 -4,5c-1.58115,1.58115 -4.186,2.69254 -6,4c-2.29454,1.65381 -3.76108,3.41589 -7,5c-2.84073,1.38934 -6.07843,2.78986 -9,4c-2.06586,0.85571 -5,1 -8,2c-3,1 -6,1 -9,1c-3,0 -6,1 -9,1c-3,0 -6.03874,-0.48056 -9,0c-3.12144,0.50653 -6,1 -9,1c-2,0 -5.0535,0.4595 -7,0c-2.17625,-0.51373 -4,-1 -6,-1c-2,0 -4,-1 -5,-1c-2,0 -4.0535,-0.5405 -6,-1c-2.17625,-0.51373 -3.02675,-1.77023 -4,-2c-2.17625,-0.51373 -3,-1 -4,-2c-1,-1 -2.4588,-0.69345 -3,-2c-0.38268,-0.92389 -0.61732,-1.07611 -1,-2c-0.5412,-1.30655 -1.4588,-0.69345 -2,-2c-0.38268,-0.92389 -1,-2 -1,-3c0,-1 0,-2 -1,-3c0,0 0,-1 0,-2c0,-1 0,-2 0,-4c0,-1 1,-2 1,-4c0,-2 0.61732,-3.07611 1,-4c0.5412,-1.30655 1.1731,-1.85272 2,-3c1.30745,-1.814 2.1731,-2.85272 3,-4c1.30745,-1.814 2,-3 3,-4c0,0 1,-1 2,-3l2,-2l2,-2"
              stroke-width="20"/>
        <path fill="none" stroke="#ffffff" id="svg_9"
              d="m248,235.5c0,0 0.61731,0.07613 1,1c0.5412,1.30656 2.48625,1.82375 3,4c0.22975,0.97325 0.5405,2.0535 1,4c0.51375,2.17625 1,4 1,5c0,1 1,2 1,4c0,1 0,3 0,4c0,0 0,1 -1,2l0,1"
              stroke-width="20"/>
        <path fill="none" stroke="#ffffff" id="svg_10"
              d="m246,277.5c1,0 2,0 4,0c2,0 2.82375,0.48627 5,1c0.97325,0.22977 2.82376,0.48627 5,1c0.97324,0.22977 3.29291,0.29291 4,1c0.70709,0.70709 1.1731,1.85272 2,3c1.30746,1.814 1.61731,3.07611 2,4c0.5412,1.30655 1,2 1,3c0,2 0,3 0,5c0,1 -0.5405,3.0535 -1,5c-0.51373,2.17624 -2,4 -3,6c-1,2 -1,4 -2,6c-1,2 -2.34619,3.70547 -4,6c-1.30746,1.814 -2,5 -3,7c-1,2 -2,4 -3,6c-1,2 -3.49345,3.87857 -4,7c-0.32036,1.97418 -1.1731,3.85272 -2,5c-1.30745,1.814 -1.48625,3.82376 -2,6c-0.4595,1.9465 -0.49345,3.87857 -1,7c-0.32036,1.97418 0,4 0,6c0,3 1,6 1,8c0,1 0.5405,3.0535 1,5c0.51375,2.17624 2.1731,2.85272 3,4c1.30745,1.814 2,3 3,4c1,1 3,3 4,4c1,1 3,3 4,4c2,2 4,3 6,4c2,1 4.02676,1.77023 5,2c2.17624,0.51373 3,1 5,1c1,0 2.07611,0.38269 3,0c1.30655,-0.5412 1.61731,-1.07611 2,-2c0.5412,-1.30655 2,-1 2,-2c0,-1 1.48627,-1.82376 2,-4c0.68927,-2.91974 1,-5 1,-8l0,-3l-1,-4l-1,-4"
              stroke-width="20"/>
        <path fill="none" stroke="#ffffff" id="svg_11"
              d="m325,368.5c0,0 0,0 0,-1c0,-2 -1,-5 -2,-8c-1,-3 -1,-7 -2,-10c-1,-3 -1,-8 -2,-12c-1,-4 -1,-8 -1,-12c0,-3 0,-6 0,-9c0,-2 0.64072,-6.05164 0,-10c-0.50653,-3.12143 -0.51944,-6.03873 -1,-9c-0.50653,-3.12143 -2.09543,-6.97736 -3,-11c-1.11865,-4.97479 -2,-8 -3,-12c-1,-4 -2.11588,-6.96384 -3,-10c-1.15277,-3.95868 -2.33749,-7.31 -4,-10c-1.487,-2.40601 -2.4588,-3.69344 -3,-5c-0.38269,-0.92387 -1.1731,-1.85274 -2,-3c-1.30746,-1.814 -2,-4 -4,-6c-1,-1 -2,-2 -3,-3l-1,-1l-1,-1"
              stroke-width="20"/>
        <path fill="none" stroke="#ffffff" id="svg_13"
              d="m491,198.5c0,1 0,4 0,7c0,3 -0.49268,7.02434 0,12c0.50244,5.0742 0.50513,10.02045 1,16c0.50171,6.06204 1,12 1,17c0,5 0,11 0,18c0,8 0.49622,14.01761 0,21c-0.50125,7.05328 -0.5029,14.01547 -1,22c-0.50098,8.04669 -1.49875,14.94672 -2,22c-0.49622,6.98239 -1,13 -1,18c0,6 -1,11 -2,15c-1,4 -2.44839,8.80566 -4,13c-1.43048,3.867 -2.61066,8.15927 -4,11c-1.58411,3.23892 -3,5 -6,8l-3,1"
              stroke-width="20"/>
        <path fill="none" stroke="#ffffff" id="svg_14"
              d="m488,205.5c0,0 0.85272,-0.1731 2,-1c3.62799,-2.6149 7.03873,-2.51945 10,-3c3.12143,-0.50655 5.87857,-1.49345 9,-2c2.96127,-0.48055 5,0 7,0c2,0 4,0 7,0c2,0 4.07611,0.61731 5,1c1.30658,0.5412 2.18604,1.69255 4,3c1.14728,0.8269 2,2 3,3c1,1 2.69257,3.186 4,5c1.65381,2.29454 3.34619,3.70546 5,6c1.30743,1.814 2.69257,4.186 4,6c1.65381,2.29454 3.513,3.59399 5,6c1.66254,2.68999 3,5 4,7c1,2 2.14429,3.93414 3,6c1.21014,2.92157 2.14429,5.93414 3,8c1.21014,2.92157 1,5 2,7c1,2 0.67963,5.02582 1,7c0.50653,3.12143 1,5 1,7c0,2 0.76538,4.15225 0,6c-0.5412,1.30655 -1.1731,2.85272 -2,4c-1.30743,1.814 -2.1731,3.85272 -3,5c-1.30743,1.814 -2,3 -3,4c-2,2 -3.87854,3.49347 -7,4c-1.97418,0.32037 -5,1 -8,1c-3,0 -6,0 -9,0c-3,0 -6,0 -10,-1l-5,-1l-6,-2l-7,-2"
              stroke-width="20"/>
        <path fill="none" stroke="#ffffff" id="svg_15"
              d="m645,200.5c0,0 -0.29291,0.29289 -1,1c-1.41418,1.41422 -2.85272,1.1731 -4,2c-1.81396,1.30745 -3,2 -5,4c-1,1 -3.20679,2.81265 -5,5c-2.28589,2.78833 -4.20679,4.81265 -6,7c-2.28589,2.78833 -4,6 -6,10c-2,4 -4.54138,7.70267 -6,11c-1.66803,3.77065 -2.44843,6.80565 -4,11c-1.43048,3.867 -3.34314,7.87604 -5,13c-1.26855,3.9231 -1.56952,8.133 -3,12c-1.55157,4.19434 -3,8 -4,12c-1,4 -3,8 -4,12c-1,4 -2,8 -3,12c-1,4 -2.11584,6.96384 -3,10c-1.15277,3.95868 -1.49347,5.87857 -2,9c-0.48053,2.96127 -1,6 -1,9c0,3 -0.49347,5.87857 -1,9c-0.32037,1.97418 0,4 0,7c0,2 0.48627,4.82376 1,7c0.45953,1.9465 0.54047,5.0535 1,7c0.51373,2.17624 1.69257,4.186 3,6c1.65381,2.29453 2.85272,3.1731 4,4c1.81396,1.30746 4,2 6,3l3,0l3,-1"
              stroke-width="20"/>
        <path fill="none" stroke="#ffffff" id="svg_16"
              d="m662,293.5c0,0 2,0 3,0c2,0 4,0 7,0c3,0 6.90778,-0.49622 11,-1c4.96252,-0.61093 9.04132,0.15277 13,-1c3.03619,-0.88412 6.18604,-1.69254 8,-3c2.29456,-1.65381 4.19031,-2.88153 6,-6c1.12231,-1.93399 2.49347,-3.87857 3,-7c0.32037,-1.97418 0.49347,-4.87857 1,-8c0.48053,-2.96127 -0.33746,-5.31 -2,-8c-1.487,-2.40601 -4.88153,-5.19028 -8,-7c-1.93402,-1.12234 -3.87854,-2.49345 -7,-3c-2.96124,-0.48055 -7,-1 -12,-1c-5,0 -9.04132,0.84723 -13,2c-3.03619,0.88414 -6.41205,1.96855 -10,4c-3.69196,2.09033 -5.31024,4.71899 -8,8c-2.28589,2.78833 -4.16797,5.92035 -6,10c-2.20605,4.91257 -3,9 -4,14c-1,5 -1,10 -1,14c0,5 0.46552,8.83807 2,14c1.45294,4.88763 2.78986,9.07843 4,12c1.71143,4.13171 3.724,8.22272 7,12c2.77979,3.20511 4.88153,6.19028 8,8c3.86798,2.24469 6.80566,4.44839 11,6c3.867,1.43048 7.92578,2.49756 13,3c3.98053,0.39417 9,0 13,-1c4,-1 7.76111,-2.41589 11,-4c2.8407,-1.38934 6.21167,-3.71411 9,-6c2.18732,-1.79318 4.41589,-3.76108 6,-7c1.38934,-2.84073 3,-8 4,-15l1,-9"
              stroke-width="20"/>
        <path fill="none" stroke="#ffffff" id="svg_17"
              d="m305,266.5c0,0 0.69254,-1.186 2,-3c0.8269,-1.14728 1.29291,-1.29291 2,-2c0.70709,-0.70709 0.29291,-0.29291 1,-1c0.70709,-0.70709 1,-2 2,-3c1,-1 2.69254,-4.186 4,-6c2.48071,-3.4418 4.4505,-5.45049 7,-8c2.5495,-2.54951 5,-4 7,-6c2,-2 4.70547,-4.34619 7,-6c1.814,-1.30745 3.82376,-1.48625 6,-2c1.9465,-0.4595 3,-1 5,-1c3,0 5.86829,1.28859 10,3c2.92157,1.21014 7.21167,1.71413 10,4c2.18735,1.7932 5.21167,3.71413 8,6c2.18735,1.7932 4,4 6,6c2,2 3.34619,4.70546 5,7c1.30746,1.814 1.84723,5.04132 3,9c0.88412,3.03616 2.49622,5.90778 3,10c0.36655,2.97751 1,6 1,9c0,3 0,7 0,10c0,3 -0.48627,6.82376 -1,9c-0.68927,2.91974 -0.84723,6.04132 -2,10c-0.88412,3.03616 -1,5 -2,7c-1,2 -1.1731,4.85272 -2,6c-1.30746,1.814 -1.69254,3.186 -3,5c-0.8269,1.14728 -1.61731,2.07611 -2,3c-0.5412,1.30655 -2.1731,1.85272 -3,3c-1.30746,1.814 -2.07611,2.61731 -3,3c-1.30655,0.5412 -2.4588,1.69345 -3,3c-0.38269,0.92389 -1,1 -1,2l-1,0l0,0l0,0"
              stroke-width="20"/>
        <path fill="none" stroke="#ffffff" id="svg_18"
              d="m384,247.5c0,0 -0.38269,-1.07613 0,-2c0.5412,-1.30656 1.69254,-3.186 3,-5c1.65381,-2.29454 4.20682,-4.81265 6,-7c2.28589,-2.78833 4.4505,-5.45049 7,-8c2.5495,-2.54951 4.85272,-3.1731 6,-4c1.814,-1.30745 4.02676,-1.77025 5,-2c2.17624,-0.51375 3,-1 5,-1c2,0 4,0 7,0c3,0 6,0 8,1c2,1 3.85272,1.1731 5,2c1.814,1.30745 3.186,2.69255 5,4c2.29453,1.65381 3.34619,2.70546 5,5c1.30746,1.814 2.69254,4.186 4,6c1.65381,2.29454 3.513,4.59399 5,7c1.66251,2.68999 2.41589,5.76108 4,9c1.38934,2.84073 3,7 4,10c1,3 2.49347,5.87857 3,9c0.48056,2.96127 1.49347,5.87857 2,9c0.48056,2.96127 0,6 0,10c0,4 0,7 0,10c0,4 0.48056,7.03873 0,10c-0.50653,3.12143 -1.51944,6.03873 -2,9c-0.50653,3.12143 -1.67963,6.02582 -2,8c-0.50653,3.12143 -1,5 -2,7c-1,2 -1.5405,3.0535 -2,5c-0.51373,2.17624 -2,3 -3,5c-1,2 -1.69254,3.186 -3,5c-0.8269,1.14728 -1.69254,2.186 -3,4c-0.8269,1.14728 -2,2 -3,3c-1,1 -2,1 -2,2l-1,0l0,1"
              stroke-width="20"/>
        <path d="m8.62523,14.84304c0,0 -0.0183,0.04419 -0.0625,0c-0.04419,-0.04419 -0.01831,-0.01831 -0.0625,-0.0625c-0.04419,-0.04419 -0.0183,-0.0808 -0.0625,-0.125c-0.04419,-0.04419 -0.04334,-0.09117 -0.125,-0.125c-0.05774,-0.02392 -0.09117,-0.04334 -0.125,-0.125c-0.02392,-0.05774 -0.07201,-0.07716 -0.1875,-0.125c-0.08166,-0.03382 -0.125,-0.125 -0.1875,-0.1875c-0.0625,-0.0625 -0.12667,-0.11064 -0.1875,-0.125c-0.13601,-0.03211 -0.17648,-0.09289 -0.31249,-0.125c-0.12165,-0.02872 -0.2424,-0.09334 -0.43749,-0.125c-0.12338,-0.02002 -0.31249,-0.0625 -0.43749,-0.0625c-0.125,0 -0.23898,-0.03039 -0.37499,-0.0625c-0.12165,-0.02872 -0.24999,0 -0.37499,0c-0.0625,0 -0.16834,0.02867 -0.25,0.0625c-0.05774,0.02392 -0.13451,-0.04783 -0.24999,0c-0.08166,0.03382 -0.16834,0.09117 -0.24999,0.125c-0.05774,0.02392 -0.17829,0.07332 -0.25,0.125c-0.11337,0.08171 -0.24999,0.125 -0.31249,0.1875c-0.0625,0.0625 -0.125,0.125 -0.1875,0.1875c-0.0625,0.0625 -0.19831,0.17829 -0.24999,0.25c-0.08171,0.11337 -0.0625,0.1875 -0.125,0.24999c-0.0625,0.0625 -0.04814,0.12667 -0.0625,0.1875c-0.03211,0.13601 -0.09117,0.16834 -0.125,0.25c-0.04783,0.11548 -0.03858,0.25475 -0.0625,0.31249c-0.03382,0.08166 -0.09117,0.16834 -0.125,0.25c-0.04783,0.11548 0.04783,0.19701 0,0.31249c-0.03382,0.08166 -0.09289,0.17648 -0.125,0.31249c-0.02872,0.12165 0.01436,0.25167 0,0.31249c-0.03211,0.13601 -0.0625,0.25 -0.0625,0.37499c0,0.125 0,0.25 0,0.37499c0,0.125 0,0.1875 0,0.31249c0,0.0625 0,0.125 0,0.24999c0,0.0625 0.0625,0.125 0.0625,0.1875c0,0.125 0.01466,0.19701 0.0625,0.31249c0.03382,0.08166 0.09117,0.10584 0.125,0.1875c0.04783,0.11548 0.03858,0.19225 0.0625,0.24999c0.03382,0.08166 0.10108,0.12976 0.125,0.1875c0.03382,0.08166 0.0808,0.1433 0.125,0.1875c0.04419,0.04419 0.13582,0.11579 0.1875,0.1875c0.08171,0.11337 0.1875,0.24999 0.24999,0.31249c0.125,0.125 0.19831,0.24079 0.24999,0.31249c0.08171,0.11337 0.13662,0.16828 0.25,0.25c0.0717,0.05168 0.10584,0.09117 0.1875,0.125c0.05774,0.02392 0.16834,0.09118 0.24999,0.125c0.05774,0.02392 0.16834,0.09117 0.24999,0.125c0.11548,0.04783 0.23084,0.09117 0.31249,0.125c0.11548,0.04783 0.17648,0.03039 0.31249,0.0625c0.06083,0.01436 0.1875,0 0.24999,0c0.125,0 0.1875,0 0.31249,0c0.125,0 0.1875,0 0.37499,0c0.125,0 0.1875,0 0.31249,0c0.125,0 0.19084,0.02872 0.31249,0c0.13601,-0.03211 0.23898,-0.09289 0.37499,-0.125c0.12165,-0.02872 0.31249,0 0.49999,0c0.1875,0 0.3049,-0.09334 0.49999,-0.125c0.12338,-0.02002 0.1875,0 0.31249,0c0.0625,0 0.125,0 0.24999,0c0.0625,0 0.12976,-0.02392 0.1875,0c0.08166,0.03382 0.11371,0.07634 0.1875,0.125c0.28098,0.18528 0.37975,0.10108 0.43749,0.125c0.08166,0.03382 0.19701,0.13966 0.31249,0.1875c0.08166,0.03382 0.125,0.125 0.1875,0.1875c0.0625,0.0625 0.125,0.125 0.1875,0.1875c0.0625,0.0625 0.125,0.0625 0.1875,0.125c0.0625,0.0625 0.0625,0.125 0.125,0.1875c0.0625,0.0625 0.125,0.125 0.1875,0.1875c0.0625,0.0625 0.10108,0.12976 0.125,0.1875c0.03382,0.08166 0.10108,0.12976 0.125,0.1875c0.03382,0.08166 0.125,0.125 0.125,0.1875c0,0.125 0.03378,0.19084 0.0625,0.31249c0.03211,0.13601 0.09289,0.23898 0.125,0.37499c0.02872,0.12165 0.03039,0.17648 0.0625,0.31249c0.01436,0.06083 0,0.125 0,0.1875c0,0.0625 0,0.1875 0,0.25c0,0.125 0.01436,0.25167 0,0.31249c-0.03211,0.13601 -0.09289,0.23898 -0.125,0.37499c-0.02872,0.12165 -0.03039,0.17648 -0.0625,0.31249c-0.01436,0.06083 -0.04814,0.18917 -0.0625,0.24999c-0.03211,0.13601 -0.15367,0.23084 -0.1875,0.31249c-0.04784,0.11548 -0.04328,0.19912 -0.125,0.31249c-0.05168,0.0717 -0.16828,0.19912 -0.25,0.31249c-0.10336,0.14341 -0.21367,0.21367 -0.31249,0.31249c-0.09882,0.09882 -0.19912,0.23078 -0.31249,0.31249c-0.0717,0.05168 -0.15118,0.15118 -0.25,0.25c-0.09882,0.09882 -0.1875,0.125 -0.31249,0.1875c-0.125,0.0625 -0.24999,0.125 -0.31249,0.1875c-0.125,0.125 -0.31249,0.1875 -0.43749,0.24999c-0.125,0.0625 -0.30838,0.13402 -0.43749,0.1875c-0.18259,0.07563 -0.37499,0.1875 -0.56249,0.24999c-0.1875,0.0625 -0.43173,0.09351 -0.68749,0.125c-0.18609,0.02291 -0.31751,0.01942 -0.49999,0.0625c-0.13601,0.03211 -0.24999,0.0625 -0.37499,0.0625c-0.125,0 -0.1875,0.0625 -0.31249,0.0625c-0.125,0 -0.1875,0 -0.31249,0c-0.125,0 -0.24999,0 -0.37499,0c-0.125,0 -0.25334,0.02872 -0.37499,0c-0.13601,-0.03211 -0.19084,-0.03378 -0.31249,-0.0625c-0.13601,-0.03211 -0.16834,-0.09118 -0.24999,-0.125c-0.05774,-0.02392 -0.12976,-0.03858 -0.1875,-0.0625c-0.08166,-0.03382 -0.12976,-0.10108 -0.1875,-0.125c-0.08166,-0.03382 -0.10108,-0.06726 -0.125,-0.125c-0.03382,-0.08166 -0.125,-0.125 -0.1875,-0.1875c0,0 -0.03858,-0.06726 -0.0625,-0.125c-0.03382,-0.08166 -0.09117,-0.10584 -0.125,-0.1875c-0.02392,-0.05774 -0.0625,-0.125 -0.0625,-0.1875c0,-0.125 0,-0.1875 0,-0.25c0,-0.125 0,-0.1875 0,-0.24999c0,-0.0625 0,-0.0625 0,-0.125c0,-0.0625 0,-0.0625 0,-0.1875c0,-0.0625 0.02867,-0.10584 0.0625,-0.1875c0.02392,-0.05774 0.04814,-0.12667 0.0625,-0.1875c0.03211,-0.13601 0.10108,-0.19225 0.125,-0.24999c0.03382,-0.08166 0.125,-0.125 0.125,-0.125c0.0625,-0.0625 0.0625,-0.0625 0.0625,-0.0625l0,0l0.0625,-0.0625"
              id="svg_1" stroke="#ffffff" fill="none"/>
        <path d="m12.37516,16.593c0,0 0,0 0.0625,0.0625c0,0 0.00476,0.03858 0.0625,0.0625c0.08166,0.03382 0.09117,0.10584 0.125,0.1875c0.02392,0.05774 0.09117,0.10584 0.125,0.1875c0.02392,0.05774 0.0625,0.0625 0.0625,0.125c0,0.0625 0.0625,0.125 0.0625,0.125c0.0625,0.0625 0.0625,0.125 0.0625,0.125c0,0.0625 0,0.125 0,0.125c0.0625,0.0625 0.0625,0.125 0.0625,0.125c0,0.0625 -0.04814,0.12667 -0.0625,0.1875c-0.03211,0.13601 -0.0625,0.18749 -0.125,0.31249l-0.125,0.125"
              id="svg_2" stroke="#ffffff" fill="none"/>
        <path d="m12.31266,19.84293c0,0 0.125,-0.0625 0.1875,-0.0625c0.0625,0 0.125,0 0.1875,0c0.0625,0 0.125,-0.0625 0.25,-0.0625c0.125,0 0.24999,-0.0625 0.37499,-0.0625c0.0625,0 0.16834,-0.02868 0.24999,-0.0625c0.05774,-0.02392 0.12976,-0.02392 0.1875,0c0.08166,0.03382 0.125,0.0625 0.1875,0.0625c0.0625,0 0.12976,0.03858 0.1875,0.0625c0.08166,0.03382 0.10584,0.09117 0.1875,0.125c0.05774,0.02392 0.06726,0.03858 0.125,0.0625c0.08166,0.03382 0.0808,0.0808 0.125,0.125c0.04419,0.04419 0.03858,0.12975 0.0625,0.1875c0.03382,0.08166 0.0625,0.125 0.0625,0.24999c0,0.125 0,0.24999 0,0.37499c0,0.1875 -0.03039,0.36398 -0.0625,0.49999c-0.04308,0.18248 -0.03039,0.36398 -0.0625,0.49999c-0.04308,0.18248 -0.01942,0.31751 -0.0625,0.49999c-0.03211,0.13601 -0.09334,0.2424 -0.125,0.43749c-0.02002,0.12338 -0.03378,0.25334 -0.0625,0.37499c-0.03211,0.13601 -0.09289,0.23898 -0.125,0.37499c-0.01436,0.06083 -0.09117,0.16834 -0.125,0.24999c-0.04783,0.11548 -0.09289,0.23898 -0.125,0.37499c-0.01436,0.06083 -0.0625,0.1875 -0.125,0.31249c-0.0625,0.125 -0.0625,0.24999 -0.125,0.37499c-0.0625,0.125 -0.04937,0.2549 -0.125,0.43749c-0.05348,0.12911 -0.09289,0.23898 -0.125,0.37499c-0.01436,0.06083 -0.03039,0.17648 -0.0625,0.31249c-0.02872,0.12165 -0.03039,0.23898 -0.0625,0.37499c-0.02872,0.12165 0,0.24999 0,0.31249c0,0.125 0.03039,0.17648 0.0625,0.31249c0.01436,0.06083 0.02868,0.10584 0.0625,0.1875c0.02392,0.05774 0,0.1875 0.0625,0.24999c0.0625,0.0625 0.07332,0.17829 0.125,0.25c0.08171,0.11337 0.125,0.1875 0.1875,0.24999c0.0625,0.0625 0.06726,0.10108 0.125,0.125c0.08166,0.03382 0.0808,0.0183 0.125,0.0625c0.04419,0.04419 0.0625,0.0625 0.0625,0.0625c0.0625,0 0.125,0.0625 0.1875,0.0625c0.0625,0 0.125,0 0.125,0c0.0625,0.0625 0.125,0.0625 0.1875,0.0625c0.0625,0 0.125,-0.0625 0.1875,-0.0625c0.125,0 0.19225,0.02392 0.24999,0c0.08166,-0.03382 0.13451,-0.01467 0.25,-0.0625c0.08166,-0.03382 0.12976,-0.03858 0.1875,-0.0625c0.08166,-0.03382 0.10584,-0.09117 0.1875,-0.125c0.05774,-0.02392 0.11579,-0.07332 0.1875,-0.125c0.11337,-0.08171 0.1875,-0.1875 0.25,-0.31249l0.0625,-0.24999l0.0625,-0.25l0,-0.31249"
              id="svg_3" stroke="#ffffff" fill="none"/>
        <path d="m15.75009,16.84299c0,0 0,0 0.0625,0c0.0625,0 0.125,-0.0625 0.1875,-0.0625c0.0625,0 0.125,0 0.1875,0c0.0625,0 0.11579,0.07332 0.1875,0.125c0.11337,0.08171 0.19912,0.10578 0.31249,0.1875c0.0717,0.05168 0.15367,0.10584 0.1875,0.1875c0.02392,0.05774 0.04814,0.18917 0.0625,0.25c0.03211,0.13601 0.09628,0.25334 0.125,0.37499c0.03211,0.13601 0.09289,0.23898 0.125,0.37499c0.04308,0.18248 0.09334,0.3674 0.125,0.56249c0.04004,0.24677 0.03959,0.4389 0.0625,0.62499c0.03149,0.25576 0.09351,0.43173 0.125,0.68748c0.03054,0.24812 0.0625,0.43749 0.0625,0.62499c0,0.1875 0.03101,0.36923 0.0625,0.62499c0.02291,0.18609 0.03039,0.36398 0.0625,0.49999c0.04308,0.18248 0,0.37499 0,0.49999c0,0.125 0.0625,0.31249 0.0625,0.37499c0,0.125 0,0.24999 0,0.37499c0,0.0625 0,0.1875 0,0.31249c0,0.125 0,0.24999 0,0.43749c0,0.125 0,0.31249 0,0.43749c0,0.125 -0.03039,0.23898 -0.0625,0.37499c-0.02872,0.12165 0,0.25 0,0.37499c0,0.125 0.04783,0.19701 0,0.31249c-0.03382,0.08166 -0.0625,0.125 -0.0625,0.1875c0,0.0625 0,0.0625 0,0.0625c0,0.0625 0,0.0625 0,0.125c0,0 0,0.0625 0,0.125l0,0l0,0.0625"
              id="svg_4" stroke="#ffffff" fill="none"/>
        <path d="m17.62505,24.96783c0,0.0625 0,0.125 0,0.1875c0,0.0625 -0.02868,0.10584 -0.0625,0.1875c-0.02392,0.05774 0,0.125 0,0.24999c0,0.0625 0.01436,0.12667 0,0.1875c-0.03211,0.13601 -0.0625,0.1875 -0.0625,0.31249c0,0.0625 0,0.125 0,0.1875c0,0.0625 -0.0625,0.125 -0.0625,0.1875c0,0.0625 0,0.1875 0,0.25c0,0.0625 0,0.125 0,0.1875c0,0.0625 -0.02868,0.10584 -0.0625,0.1875c-0.02392,0.05774 0,0.125 0,0.1875c0,0.0625 0,0.0625 0,0.125c0,0 0,0 0,0.0625c0,0 0,0.0625 0,0.125c0,0.0625 0,0.125 0,0.125c0,0.0625 0.02392,0.12976 0,0.1875c-0.03382,0.08166 -0.0625,0.125 -0.0625,0.1875c0,0 0,0.0625 0,0.0625l0,0.0625l0,0.0625l-0.0625,0.0625"
              id="svg_5" stroke="#ffffff" fill="none"/>
        <path d="m17.68755,18.65546c0,-0.0625 0,-0.1875 0,-0.24999c0,-0.125 0,-0.1875 0,-0.31249c0,-0.0625 -0.04783,-0.19701 0,-0.31249c0.03382,-0.08166 0.15367,-0.16834 0.1875,-0.24999c0.04783,-0.11548 0.05329,-0.19831 0.125,-0.25c0.11337,-0.08171 0.1875,-0.125 0.25,-0.1875c0.0625,-0.0625 0.11398,-0.09289 0.24999,-0.125c0.12165,-0.02872 0.24999,0 0.37499,0c0.0625,0 0.11231,0.07853 0.1875,0.125c0.16812,0.1039 0.31662,0.17985 0.43749,0.25c0.1949,0.11311 0.25,0.1875 0.37499,0.31249c0.125,0.125 0.20606,0.28836 0.37499,0.43749c0.10477,0.09249 0.1875,0.1875 0.25,0.31249c0.0625,0.125 0.125,0.24999 0.1875,0.37499c0.0625,0.125 0.15539,0.30148 0.1875,0.43749c0.02872,0.12165 0.09334,0.3049 0.125,0.49999c0.03003,0.18508 0.0625,0.37499 0.0625,0.56249c0,0.1875 0.03084,0.3674 0.0625,0.56249c0.02002,0.12338 0,0.31249 0,0.49999c0,0.125 0,0.31249 0,0.49999c0,0.1875 0,0.37499 0,0.56249c0,0.1875 -0.03084,0.3049 -0.0625,0.49999c-0.02002,0.12338 -0.03084,0.2424 -0.0625,0.43749c-0.02002,0.12338 -0.0625,0.24999 -0.0625,0.37499c0,0.125 -0.04328,0.26162 -0.125,0.37499c-0.05168,0.0717 -0.09289,0.17648 -0.125,0.31249c-0.01436,0.06083 -0.03858,0.19225 -0.0625,0.24999c-0.03382,0.08166 -0.09289,0.11398 -0.125,0.24999c-0.01436,0.06083 -0.03039,0.11398 -0.0625,0.25c-0.01436,0.06083 -0.0625,0.125 -0.0625,0.1875c0,0.0625 -0.0625,0.1875 -0.0625,0.24999c0,0.0625 -0.0625,0.125 -0.0625,0.1875c0,0.0625 -0.0625,0.125 -0.0625,0.24999c0,0.0625 -0.02868,0.10584 -0.0625,0.1875c-0.04783,0.11548 -0.03039,0.23898 -0.0625,0.37499c-0.01436,0.06083 0,0.1875 -0.0625,0.31249l0,0.125l0,0.1875"
              id="svg_6" stroke="#ffffff" fill="none"/>
        <path d="m20.74998,18.15547c0,-0.0625 -0.04783,-0.13451 0,-0.24999c0.03382,-0.08166 0.09628,-0.19084 0.125,-0.31249c0.03211,-0.13601 0.125,-0.1875 0.1875,-0.31249c0.0625,-0.125 0.125,-0.1875 0.125,-0.1875c0.0625,-0.0625 0.10584,-0.09117 0.1875,-0.125c0.05774,-0.02392 0.11398,-0.03039 0.25,-0.0625c0.18248,-0.04308 0.31249,0 0.43749,0c0.125,0 0.31584,0.03378 0.43749,0.0625c0.13601,0.03211 0.30509,0.13689 0.49999,0.24999c0.12087,0.07014 0.24079,0.13582 0.31249,0.1875c0.11337,0.08171 0.19831,0.11579 0.25,0.1875c0.08171,0.11337 0.13581,0.17829 0.1875,0.24999c0.08171,0.11337 0.13401,0.18338 0.1875,0.31249c0.07563,0.18259 0.13401,0.30838 0.1875,0.43749c0.07563,0.18259 0.15584,0.3049 0.1875,0.49999c0.03004,0.18508 0.09334,0.4299 0.125,0.62499c0.04004,0.24677 0.03084,0.4299 0.0625,0.62499c0.04004,0.24677 0,0.43749 0,0.62499c0,0.1875 0,0.37499 0,0.56249c0,0.1875 -0.03084,0.3049 -0.0625,0.49999c-0.02002,0.12338 -0.04248,0.31411 -0.0625,0.43749c-0.03166,0.19509 -0.09628,0.31584 -0.125,0.43749c-0.03211,0.13601 -0.13401,0.30838 -0.1875,0.43749c-0.07563,0.18259 -0.15878,0.31584 -0.1875,0.43749c-0.03211,0.13601 -0.125,0.25 -0.1875,0.37499c-0.0625,0.125 -0.15539,0.17648 -0.1875,0.31249c-0.01436,0.06083 -0.07332,0.17829 -0.125,0.24999c-0.08171,0.11337 -0.13582,0.24079 -0.1875,0.31249c-0.08171,0.11337 -0.13581,0.24079 -0.1875,0.31249c-0.08171,0.11337 -0.125,0.24999 -0.1875,0.37499c-0.0625,0.125 -0.09628,0.19084 -0.125,0.31249c-0.03211,0.13601 -0.15539,0.17648 -0.1875,0.31249c-0.02872,0.12165 -0.01466,0.25951 -0.0625,0.37499c-0.03382,0.08166 -0.04814,0.18917 -0.0625,0.24999c-0.03211,0.13601 -0.0625,0.1875 -0.0625,0.24999c0,0.0625 0,0.125 0,0.1875c0,0.0625 0.02868,0.10584 0.0625,0.1875c0.02392,0.05774 0.00476,0.10108 0.0625,0.125c0.08166,0.03382 0.125,0.125 0.1875,0.1875c0.0625,0.0625 0.125,0.125 0.24999,0.1875l0.0625,0"
              id="svg_7" stroke="#ffffff" fill="none"/>
        <path d="m25.87488,13.09307c0,0.0625 0,0.125 0,0.1875c0,0.125 0,0.1875 0,0.31249c0,0.1875 0,0.37499 0,0.56249c0,0.1875 0.02245,0.37822 0.0625,0.62499c0.03166,0.19509 0.09351,0.36923 0.125,0.62499c0.03054,0.24812 0.00596,0.49857 0.0625,0.74998c0.06991,0.31092 0.09351,0.61922 0.125,0.87498c0.03055,0.24812 -0.03079,0.56401 0,0.87498c0.0314,0.31713 0.09359,0.62035 0.125,0.93748c0.03079,0.31097 -0.03818,0.62733 0,0.93748c0.03149,0.25576 0.09351,0.55672 0.125,0.81248c0.03054,0.24812 0.03101,0.49422 0.0625,0.74998c0.03054,0.24812 0.0625,0.49999 0.0625,0.74998c0,0.18749 -0.03003,0.43991 0,0.62499c0.03166,0.19509 0.03959,0.4389 0.0625,0.62499c0.03148,0.25576 0.0625,0.49999 0.0625,0.68749c0,0.24999 0,0.43749 0,0.62499c0,0.1875 0,0.37499 0,0.56249c0,0.1875 -0.03039,0.36398 -0.0625,0.49999c-0.04308,0.18248 -0.00506,0.38168 -0.0625,0.62499c-0.03211,0.13601 -0.09628,0.31584 -0.125,0.43749c-0.03211,0.13601 -0.11735,0.31662 -0.1875,0.43749c-0.11311,0.1949 -0.125,0.31249 -0.1875,0.43749c-0.0625,0.125 -0.125,0.24999 -0.1875,0.37499c-0.0625,0.125 -0.13582,0.17829 -0.1875,0.24999c-0.08171,0.11337 -0.07332,0.17829 -0.125,0.24999c-0.08171,0.11337 -0.125,0.1875 -0.1875,0.25c-0.0625,0.0625 -0.0808,0.0808 -0.125,0.125c-0.04419,0.04419 0,0.0625 -0.0625,0.125c0,0 -0.0625,0.0625 -0.0625,0.0625c-0.0625,0.0625 -0.07412,0.10578 -0.1875,0.1875c-0.0717,0.05168 -0.125,0.125 -0.1875,0.1875c-0.0625,0.0625 -0.1875,0.1875 -0.24999,0.25c-0.0625,0.0625 -0.0808,0.0808 -0.125,0.125c-0.04419,0.04419 -0.0625,0.0625 -0.0625,0.0625l0,0"
              id="svg_12" stroke="#ffffff" fill="none"/>
        <path d="m25.87488,13.84306c0.0625,0 0.03858,-0.00476 0.0625,-0.0625c0.03382,-0.08166 0.11579,-0.13582 0.1875,-0.1875c0.11337,-0.08171 0.1875,-0.1875 0.24999,-0.25c0.0625,-0.0625 0.17648,-0.21789 0.31249,-0.25c0.06083,-0.01436 0.1875,-0.0625 0.1875,-0.0625c0.0625,-0.0625 0.1875,-0.0625 0.24999,-0.0625c0.1875,0 0.31249,0 0.43749,0c0.1875,0 0.30148,0.03039 0.43749,0.0625c0.18248,0.04308 0.3174,-0.01313 0.49999,0.0625c0.12911,0.05348 0.24079,0.07332 0.31249,0.125c0.11337,0.08171 0.21367,0.02618 0.31249,0.125c0.09882,0.09882 0.125,0.1875 0.1875,0.25c0.125,0.125 0.26081,0.24079 0.31249,0.31249c0.08171,0.11337 0.125,0.1875 0.18749,0.31249c0.0625,0.125 0.08192,0.19251 0.125,0.37499c0.03211,0.13601 0.11186,0.2549 0.1875,0.43749c0.05348,0.12911 0.13402,0.30838 0.1875,0.43749c0.07563,0.18259 0.15539,0.30148 0.1875,0.43749c0.02872,0.12165 0.01942,0.25501 0.0625,0.43749c0.03211,0.13601 0.09289,0.23898 0.125,0.37499c0.02872,0.12165 0.03039,0.23898 0.0625,0.37499c0.04308,0.18248 0,0.31249 0,0.49999c0,0.1875 0.0625,0.37499 0.0625,0.49999c0,0.125 0,0.31249 0,0.43749c0,0.125 -0.01467,0.25951 -0.0625,0.37499c-0.03382,0.08166 -0.09289,0.17648 -0.125,0.31249c-0.02872,0.12165 -0.03378,0.25334 -0.0625,0.37499c-0.03211,0.13601 -0.10578,0.26162 -0.1875,0.37499c-0.05168,0.0717 -0.13581,0.17829 -0.1875,0.25c-0.08171,0.11337 -0.125,0.18749 -0.24999,0.31249c-0.0625,0.0625 -0.125,0.125 -0.1875,0.1875c-0.0625,0.0625 -0.12975,0.03858 -0.1875,0.0625c-0.08166,0.03382 -0.0625,0.0625 -0.125,0.0625c-0.0625,0 -0.0625,0.0625 -0.125,0.0625c0,0 -0.0625,0 -0.0625,0c-0.0625,0 -0.0625,0 -0.125,0c-0.0625,0 -0.125,-0.0625 -0.1875,-0.0625c0,0 -0.0625,-0.0625 -0.125,-0.0625c-0.0625,0 -0.0808,-0.0808 -0.125,-0.125c-0.04419,-0.04419 -0.13451,-0.01466 -0.25,-0.0625c-0.08166,-0.03382 -0.1433,-0.0808 -0.1875,-0.125c-0.04419,-0.04419 -0.06726,-0.10108 -0.125,-0.125c-0.08166,-0.03382 -0.1433,-0.0808 -0.1875,-0.125c-0.04419,-0.04419 -0.0625,-0.0625 -0.0625,-0.0625c-0.0625,-0.0625 -0.06726,-0.10108 -0.125,-0.125c-0.08166,-0.03382 -0.0625,-0.125 -0.125,-0.125l-0.0625,-0.0625l0,0"
              id="svg_19" stroke="#ffffff" fill="none"/>
        <path d="m32.87474,12.78058c0,0.0625 -0.01942,0.19251 -0.0625,0.37499c-0.03211,0.13601 -0.01942,0.31751 -0.0625,0.49999c-0.03211,0.13601 -0.09334,0.3674 -0.125,0.56249c-0.03003,0.18507 -0.03101,0.36923 -0.0625,0.62499c-0.02291,0.18609 -0.03101,0.43173 -0.0625,0.68749c-0.03054,0.24812 0.03054,0.50186 0,0.74998c-0.03149,0.25576 -0.0936,0.55785 -0.125,0.87498c-0.02464,0.24878 -0.0317,0.56401 -0.0625,0.87498c-0.0314,0.31713 -0.0625,0.62499 -0.125,0.93748c-0.0625,0.31249 -0.06846,0.62357 -0.125,0.87498c-0.06992,0.31092 -0.09351,0.55672 -0.125,0.81248c-0.03054,0.24812 -0.09351,0.49423 -0.125,0.74998c-0.03054,0.24812 -0.05295,0.50257 -0.125,0.74998c-0.05526,0.18976 -0.15601,0.43173 -0.1875,0.68748c-0.02291,0.18609 -0.05295,0.44007 -0.125,0.68749c-0.05526,0.18976 -0.0625,0.43749 -0.125,0.62499c-0.0625,0.1875 -0.11545,0.37757 -0.1875,0.62499c-0.05526,0.18976 -0.09445,0.43936 -0.125,0.68748c-0.03148,0.25576 -0.125,0.43749 -0.125,0.68749c0,0.1875 -0.0625,0.37499 -0.0625,0.56249c0,0.0625 0.03858,0.19225 0.0625,0.24999c0.03382,0.08166 0.0808,0.0808 0.125,0.125c0.04419,0.04419 0.0625,0.0625 0.0625,0.0625c0,0.0625 0.0625,0.0625 0.0625,0.0625c0.0625,0 0.0808,-0.04419 0.125,0c0.04419,0.04419 0.0625,0.0625 0.125,0.0625c0.0625,0 0.125,0 0.125,0c0.0625,0.0625 0.125,0.0625 0.24999,0.0625c0.0625,0 0.125,-0.0625 0.1875,-0.0625c0.125,0 0.19084,0.02872 0.31249,0c0.13602,-0.03211 0.25951,-0.01467 0.37499,-0.0625c0.08166,-0.03382 0.16834,-0.09117 0.25,-0.125c0.05774,-0.02392 0.17829,-0.07332 0.25,-0.125c0.11337,-0.08171 0.1875,-0.0625 0.24999,-0.125c0,0 0.02868,0.01916 0.0625,-0.0625c0.02392,-0.05774 0.0625,-0.125 0.0625,-0.1875l0,-0.0625l0.0625,-0.0625"
              id="svg_20" stroke="#ffffff" fill="none"/>
        <path d="m35.93717,23.46786c0,0 0.1158,-0.07332 0.1875,-0.125c0.11337,-0.08171 0.26162,-0.16828 0.37499,-0.24999c0.14341,-0.10336 0.30079,-0.26292 0.43749,-0.37499c0.17427,-0.14286 0.35086,-0.20606 0.49999,-0.37499c0.09249,-0.10477 0.19831,-0.24079 0.25,-0.31249c0.08171,-0.11337 0.13401,-0.24588 0.1875,-0.37499c0.07563,-0.18259 0.15584,-0.3674 0.1875,-0.56249c0.03003,-0.18508 0,-0.37499 0,-0.56249c0,-0.1875 0.0414,-0.33187 -0.0625,-0.49999c-0.09293,-0.15037 -0.16828,-0.26162 -0.24999,-0.37499c-0.10336,-0.14341 -0.19912,-0.16828 -0.3125,-0.25c-0.14341,-0.10336 -0.24588,-0.19651 -0.37499,-0.24999c-0.18259,-0.07563 -0.37757,-0.05295 -0.62498,-0.125c-0.18975,-0.05526 -0.37499,-0.0625 -0.56249,-0.0625c-0.0625,0 -0.19912,-0.01922 -0.3125,0.0625c-0.0717,0.05168 -0.1875,0.125 -0.31249,0.1875c-0.125,0.0625 -0.23159,0.20913 -0.37499,0.31249c-0.11337,0.08171 -0.23078,0.26162 -0.31249,0.37499c-0.15504,0.21511 -0.33849,0.36006 -0.43749,0.56249c-0.08683,0.17754 -0.17436,0.37989 -0.25,0.56249c-0.10696,0.25823 -0.16459,0.50139 -0.1875,0.68749c-0.03148,0.25576 -0.125,0.49999 -0.125,0.74998c0,0.25 0,0.49999 0,0.74998c0,0.25 -0.02291,0.5014 0,0.68749c0.03149,0.25576 0.0625,0.43749 0.125,0.62499c0.0625,0.1875 0.04937,0.37989 0.125,0.56249c0.05348,0.12911 0.11187,0.3174 0.1875,0.49999c0.05348,0.12911 0.17314,0.25167 0.1875,0.31249c0.03211,0.13601 0.08868,0.21367 0.1875,0.31249c0.09882,0.09882 0.21367,0.08868 0.31249,0.1875c0.09882,0.09882 0.1875,0.1875 0.31249,0.24999c0.125,0.0625 0.30838,0.13402 0.43749,0.1875c0.18259,0.07563 0.37822,0.08495 0.62499,0.125c0.19509,0.03166 0.3674,0.09334 0.56249,0.125c0.12338,0.02002 0.24999,0 0.37499,0c0.125,0 0.16833,-0.02868 0.24999,-0.0625c0.05774,-0.02392 0.125,0 0.1875,-0.0625c0.0625,-0.0625 0.17829,-0.13582 0.25,-0.1875c0.11337,-0.08171 0.19912,-0.10578 0.31249,-0.1875c0.0717,-0.05168 0.1875,-0.125 0.25,-0.1875c0.0625,-0.0625 0.125,-0.125 0.1875,-0.1875c0.0625,-0.0625 0.09214,-0.13433 0.125,-0.1875c0.07347,-0.11888 0.1875,-0.125 0.25,-0.1875l0,-0.0625l0,-0.0625"
              id="svg_21" stroke="#ffffff" fill="none"/>
        <path d="m36.24967,23.03037c0,0 -0.0625,0 -0.0625,0c0,0 -0.0625,0 -0.0625,0c0,0.0625 0,0.0625 -0.0625,0.0625c0,0 -0.0625,0 -0.0625,0c0,0.0625 -0.0625,0.0625 -0.0625,0.0625c0,0 -0.0625,0 -0.0625,0c0,0 -0.0625,0.0625 -0.0625,0.0625c0,0 -0.0625,0 -0.0625,0c0,0.0625 -0.0625,0.0625 -0.0625,0.0625c0,0 -0.0625,0 -0.0625,0c-0.0625,0 -0.0625,0 -0.0625,0c-0.0625,0 -0.0625,0 -0.125,0c0,0 -0.01831,-0.01831 -0.0625,-0.0625c-0.04419,-0.04419 -0.125,0 -0.125,0c0,0 -0.0625,-0.0625 -0.0625,-0.0625c0,0 -0.0625,0 -0.0625,0c0,0 -0.0625,-0.0625 -0.0625,-0.0625c0,0 -0.01831,0.04419 -0.0625,0c-0.04419,-0.04419 0,-0.0625 0,-0.0625c0,-0.0625 -0.0183,-0.01831 -0.0625,-0.0625c-0.04419,-0.04419 0,-0.125 0,-0.125c0,-0.0625 0,-0.125 0,-0.125c0,-0.0625 0,-0.125 0,-0.125c0,0 0,-0.0625 0,-0.0625c0,-0.0625 0,-0.0625 0,-0.125c0,0 0,-0.0625 0,-0.0625l0,0"
              id="svg_23" stroke="#ffffff" fill="none"/>
    </g>

</svg>